<?xml version="1.0" encoding="utf-8" standalone="no"?>
<!DOCTYPE svg PUBLIC "-//W3C//DTD SVG 1.1//EN"
  "http://www.w3.org/Graphics/SVG/1.1/DTD/svg11.dtd">
<svg xmlns:xlink="http://www.w3.org/1999/xlink" width="648pt" height="396pt" viewBox="0 0 648 396" xmlns="http://www.w3.org/2000/svg" version="1.1">
 <metadata>
  <rdf:RDF xmlns:dc="http://purl.org/dc/elements/1.1/" xmlns:cc="http://creativecommons.org/ns#" xmlns:rdf="http://www.w3.org/1999/02/22-rdf-syntax-ns#">
   <cc:Work>
    <dc:type rdf:resource="http://purl.org/dc/dcmitype/StillImage"/>
    <dc:date>2026-09-24T15:50:11.261253</dc:date>
    <dc:format>image/svg+xml</dc:format>
    <dc:creator>
     <cc:Agent>
      <dc:title>Matplotlib v3.10.9, https://matplotlib.org/</dc:title>
     </cc:Agent>
    </dc:creator>
   </cc:Work>
  </rdf:RDF>
 </metadata>
 <defs>
  <style type="text/css">*{stroke-linejoin: round; stroke-linecap: butt}</style>
 </defs>
 <g id="figure_1">
  <g id="patch_1">
   <path d="M 0 396 
L 648 396 
L 648 0 
L 0 0 
z
" style="fill: #ffffff"/>
  </g>
  <g id="axes_1">
   <g id="patch_2">
    <path d="M 46.515865 362.071635 
L 644.99976 362.071635 
L 644.99976 16.959615 
L 46.515865 16.959615 
z
" style="fill: #ffffff"/>
   </g>
   <g id="PathCollection_1">
    <defs>
     <path id="mb281c1c20d" d="M 0 2.236068 
C 0.593012 2.236068 1.161816 2.000462 1.581139 1.581139 
C 2.000462 1.161816 2.236068 0.593012 2.236068 0 
C 2.236068 -0.593012 2.000462 -1.161816 1.581139 -1.581139 
C 1.161816 -2.000462 0.593012 -2.236068 0 -2.236068 
C -0.593012 -2.236068 -1.161816 -2.000462 -1.581139 -1.581139 
C -2.000462 -1.161816 -2.236068 -0.593012 -2.236068 0 
C -2.236068 0.593012 -2.000462 1.161816 -1.581139 1.581139 
C -1.161816 2.000462 -0.593012 2.236068 0 2.236068 
z
" style="stroke: #1f77b4"/>
    </defs>
    <g clip-path="url(#pde8f2cb609)">
     <use xlink:href="#mb281c1c20d" x="46.515865" y="346.019913" style="fill: #1f77b4; stroke: #1f77b4"/>
     <use xlink:href="#mb281c1c20d" x="104.621098" y="344.334926" style="fill: #1f77b4; stroke: #1f77b4"/>
     <use xlink:href="#mb281c1c20d" x="162.72633" y="342.254694" style="fill: #1f77b4; stroke: #1f77b4"/>
     <use xlink:href="#mb281c1c20d" x="220.831563" y="339.621674" style="fill: #1f77b4; stroke: #1f77b4"/>
     <use xlink:href="#mb281c1c20d" x="278.936795" y="336.181761" style="fill: #1f77b4; stroke: #1f77b4"/>
     <use xlink:href="#mb281c1c20d" x="337.042028" y="331.496927" style="fill: #1f77b4; stroke: #1f77b4"/>
     <use xlink:href="#mb281c1c20d" x="395.14726" y="324.742049" style="fill: #1f77b4; stroke: #1f77b4"/>
     <use xlink:href="#mb281c1c20d" x="453.252493" y="314.156047" style="fill: #1f77b4; stroke: #1f77b4"/>
     <use xlink:href="#mb281c1c20d" x="511.357725" y="295.189461" style="fill: #1f77b4; stroke: #1f77b4"/>
     <use xlink:href="#mb281c1c20d" x="569.462958" y="251.370105" style="fill: #1f77b4; stroke: #1f77b4"/>
     <use xlink:href="#mb281c1c20d" x="627.56819" y="41.037198" style="fill: #1f77b4; stroke: #1f77b4"/>
    </g>
   </g>
   <g id="matplotlib.axis_1">
    <g id="xtick_1">
     <g id="line2d_1">
      <path d="M 46.515865 362.071635 
L 46.515865 16.959615 
" clip-path="url(#pde8f2cb609)" style="fill: none; stroke: #b0b0b0; stroke-opacity: 0.18; stroke-width: 0.8; stroke-linecap: square"/>
     </g>
     <g id="line2d_2">
      <defs>
       <path id="mfcb9441d6b" d="M 0 0 
L 0 3.5 
" style="stroke: #000000; stroke-width: 0.8"/>
      </defs>
      <g>
       <use xlink:href="#mfcb9441d6b" x="46.515865" y="362.071635" style="stroke: #000000; stroke-width: 0.8"/>
      </g>
     </g>
     <g id="text_1">
      <!-- 0 -->
      <g transform="translate(43.334615 376.670073) scale(0.1 -0.1)">
       <defs>
        <path id="DejaVuSans-30" d="M 2034 4250 
Q 1547 4250 1301 3770 
Q 1056 3291 1056 2328 
Q 1056 1369 1301 889 
Q 1547 409 2034 409 
Q 2525 409 2770 889 
Q 3016 1369 3016 2328 
Q 3016 3291 2770 3770 
Q 2525 4250 2034 4250 
z
M 2034 4750 
Q 2819 4750 3233 4129 
Q 3647 3509 3647 2328 
Q 3647 1150 3233 529 
Q 2819 -91 2034 -91 
Q 1250 -91 836 529 
Q 422 1150 422 2328 
Q 422 3509 836 4129 
Q 1250 4750 2034 4750 
z
" transform="scale(0.015625)"/>
       </defs>
       <use xlink:href="#DejaVuSans-30"/>
      </g>
     </g>
    </g>
    <g id="xtick_2">
     <g id="line2d_3">
      <path d="M 104.621098 362.071635 
L 104.621098 16.959615 
" clip-path="url(#pde8f2cb609)" style="fill: none; stroke: #b0b0b0; stroke-opacity: 0.18; stroke-width: 0.8; stroke-linecap: square"/>
     </g>
     <g id="line2d_4">
      <g>
       <use xlink:href="#mfcb9441d6b" x="104.621098" y="362.071635" style="stroke: #000000; stroke-width: 0.8"/>
      </g>
     </g>
     <g id="text_2">
      <!-- 10 -->
      <g transform="translate(98.258598 376.670073) scale(0.1 -0.1)">
       <defs>
        <path id="DejaVuSans-31" d="M 794 531 
L 1825 531 
L 1825 4091 
L 703 3866 
L 703 4441 
L 1819 4666 
L 2450 4666 
L 2450 531 
L 3481 531 
L 3481 0 
L 794 0 
L 794 531 
z
" transform="scale(0.015625)"/>
       </defs>
       <use xlink:href="#DejaVuSans-31"/>
       <use xlink:href="#DejaVuSans-30" transform="translate(63.623047 0)"/>
      </g>
     </g>
    </g>
    <g id="xtick_3">
     <g id="line2d_5">
      <path d="M 162.72633 362.071635 
L 162.72633 16.959615 
" clip-path="url(#pde8f2cb609)" style="fill: none; stroke: #b0b0b0; stroke-opacity: 0.18; stroke-width: 0.8; stroke-linecap: square"/>
     </g>
     <g id="line2d_6">
      <g>
       <use xlink:href="#mfcb9441d6b" x="162.72633" y="362.071635" style="stroke: #000000; stroke-width: 0.8"/>
      </g>
     </g>
     <g id="text_3">
      <!-- 20 -->
      <g transform="translate(156.36383 376.670073) scale(0.1 -0.1)">
       <defs>
        <path id="DejaVuSans-32" d="M 1228 531 
L 3431 531 
L 3431 0 
L 469 0 
L 469 531 
Q 828 903 1448 1529 
Q 2069 2156 2228 2338 
Q 2531 2678 2651 2914 
Q 2772 3150 2772 3378 
Q 2772 3750 2511 3984 
Q 2250 4219 1831 4219 
Q 1534 4219 1204 4116 
Q 875 4013 500 3803 
L 500 4441 
Q 881 4594 1212 4672 
Q 1544 4750 1819 4750 
Q 2544 4750 2975 4387 
Q 3406 4025 3406 3419 
Q 3406 3131 3298 2873 
Q 3191 2616 2906 2266 
Q 2828 2175 2409 1742 
Q 1991 1309 1228 531 
z
" transform="scale(0.015625)"/>
       </defs>
       <use xlink:href="#DejaVuSans-32"/>
       <use xlink:href="#DejaVuSans-30" transform="translate(63.623047 0)"/>
      </g>
     </g>
    </g>
    <g id="xtick_4">
     <g id="line2d_7">
      <path d="M 220.831563 362.071635 
L 220.831563 16.959615 
" clip-path="url(#pde8f2cb609)" style="fill: none; stroke: #b0b0b0; stroke-opacity: 0.18; stroke-width: 0.8; stroke-linecap: square"/>
     </g>
     <g id="line2d_8">
      <g>
       <use xlink:href="#mfcb9441d6b" x="220.831563" y="362.071635" style="stroke: #000000; stroke-width: 0.8"/>
      </g>
     </g>
     <g id="text_4">
      <!-- 30 -->
      <g transform="translate(214.469063 376.670073) scale(0.1 -0.1)">
       <defs>
        <path id="DejaVuSans-33" d="M 2597 2516 
Q 3050 2419 3304 2112 
Q 3559 1806 3559 1356 
Q 3559 666 3084 287 
Q 2609 -91 1734 -91 
Q 1441 -91 1130 -33 
Q 819 25 488 141 
L 488 750 
Q 750 597 1062 519 
Q 1375 441 1716 441 
Q 2309 441 2620 675 
Q 2931 909 2931 1356 
Q 2931 1769 2642 2001 
Q 2353 2234 1838 2234 
L 1294 2234 
L 1294 2753 
L 1863 2753 
Q 2328 2753 2575 2939 
Q 2822 3125 2822 3475 
Q 2822 3834 2567 4026 
Q 2313 4219 1838 4219 
Q 1578 4219 1281 4162 
Q 984 4106 628 3988 
L 628 4550 
Q 988 4650 1302 4700 
Q 1616 4750 1894 4750 
Q 2613 4750 3031 4423 
Q 3450 4097 3450 3541 
Q 3450 3153 3228 2886 
Q 3006 2619 2597 2516 
z
" transform="scale(0.015625)"/>
       </defs>
       <use xlink:href="#DejaVuSans-33"/>
       <use xlink:href="#DejaVuSans-30" transform="translate(63.623047 0)"/>
      </g>
     </g>
    </g>
    <g id="xtick_5">
     <g id="line2d_9">
      <path d="M 278.936795 362.071635 
L 278.936795 16.959615 
" clip-path="url(#pde8f2cb609)" style="fill: none; stroke: #b0b0b0; stroke-opacity: 0.18; stroke-width: 0.8; stroke-linecap: square"/>
     </g>
     <g id="line2d_10">
      <g>
       <use xlink:href="#mfcb9441d6b" x="278.936795" y="362.071635" style="stroke: #000000; stroke-width: 0.8"/>
      </g>
     </g>
     <g id="text_5">
      <!-- 40 -->
      <g transform="translate(272.574295 376.670073) scale(0.1 -0.1)">
       <defs>
        <path id="DejaVuSans-34" d="M 2419 4116 
L 825 1625 
L 2419 1625 
L 2419 4116 
z
M 2253 4666 
L 3047 4666 
L 3047 1625 
L 3713 1625 
L 3713 1100 
L 3047 1100 
L 3047 0 
L 2419 0 
L 2419 1100 
L 313 1100 
L 313 1709 
L 2253 4666 
z
" transform="scale(0.015625)"/>
       </defs>
       <use xlink:href="#DejaVuSans-34"/>
       <use xlink:href="#DejaVuSans-30" transform="translate(63.623047 0)"/>
      </g>
     </g>
    </g>
    <g id="xtick_6">
     <g id="line2d_11">
      <path d="M 337.042028 362.071635 
L 337.042028 16.959615 
" clip-path="url(#pde8f2cb609)" style="fill: none; stroke: #b0b0b0; stroke-opacity: 0.18; stroke-width: 0.8; stroke-linecap: square"/>
     </g>
     <g id="line2d_12">
      <g>
       <use xlink:href="#mfcb9441d6b" x="337.042028" y="362.071635" style="stroke: #000000; stroke-width: 0.8"/>
      </g>
     </g>
     <g id="text_6">
      <!-- 50 -->
      <g transform="translate(330.679528 376.670073) scale(0.1 -0.1)">
       <defs>
        <path id="DejaVuSans-35" d="M 691 4666 
L 3169 4666 
L 3169 4134 
L 1269 4134 
L 1269 2991 
Q 1406 3038 1543 3061 
Q 1681 3084 1819 3084 
Q 2600 3084 3056 2656 
Q 3513 2228 3513 1497 
Q 3513 744 3044 326 
Q 2575 -91 1722 -91 
Q 1428 -91 1123 -41 
Q 819 9 494 109 
L 494 744 
Q 775 591 1075 516 
Q 1375 441 1709 441 
Q 2250 441 2565 725 
Q 2881 1009 2881 1497 
Q 2881 1984 2565 2268 
Q 2250 2553 1709 2553 
Q 1456 2553 1204 2497 
Q 953 2441 691 2322 
L 691 4666 
z
" transform="scale(0.015625)"/>
       </defs>
       <use xlink:href="#DejaVuSans-35"/>
       <use xlink:href="#DejaVuSans-30" transform="translate(63.623047 0)"/>
      </g>
     </g>
    </g>
    <g id="xtick_7">
     <g id="line2d_13">
      <path d="M 395.14726 362.071635 
L 395.14726 16.959615 
" clip-path="url(#pde8f2cb609)" style="fill: none; stroke: #b0b0b0; stroke-opacity: 0.18; stroke-width: 0.8; stroke-linecap: square"/>
     </g>
     <g id="line2d_14">
      <g>
       <use xlink:href="#mfcb9441d6b" x="395.14726" y="362.071635" style="stroke: #000000; stroke-width: 0.8"/>
      </g>
     </g>
     <g id="text_7">
      <!-- 60 -->
      <g transform="translate(388.78476 376.670073) scale(0.1 -0.1)">
       <defs>
        <path id="DejaVuSans-36" d="M 2113 2584 
Q 1688 2584 1439 2293 
Q 1191 2003 1191 1497 
Q 1191 994 1439 701 
Q 1688 409 2113 409 
Q 2538 409 2786 701 
Q 3034 994 3034 1497 
Q 3034 2003 2786 2293 
Q 2538 2584 2113 2584 
z
M 3366 4563 
L 3366 3988 
Q 3128 4100 2886 4159 
Q 2644 4219 2406 4219 
Q 1781 4219 1451 3797 
Q 1122 3375 1075 2522 
Q 1259 2794 1537 2939 
Q 1816 3084 2150 3084 
Q 2853 3084 3261 2657 
Q 3669 2231 3669 1497 
Q 3669 778 3244 343 
Q 2819 -91 2113 -91 
Q 1303 -91 875 529 
Q 447 1150 447 2328 
Q 447 3434 972 4092 
Q 1497 4750 2381 4750 
Q 2619 4750 2861 4703 
Q 3103 4656 3366 4563 
z
" transform="scale(0.015625)"/>
       </defs>
       <use xlink:href="#DejaVuSans-36"/>
       <use xlink:href="#DejaVuSans-30" transform="translate(63.623047 0)"/>
      </g>
     </g>
    </g>
    <g id="xtick_8">
     <g id="line2d_15">
      <path d="M 453.252493 362.071635 
L 453.252493 16.959615 
" clip-path="url(#pde8f2cb609)" style="fill: none; stroke: #b0b0b0; stroke-opacity: 0.18; stroke-width: 0.8; stroke-linecap: square"/>
     </g>
     <g id="line2d_16">
      <g>
       <use xlink:href="#mfcb9441d6b" x="453.252493" y="362.071635" style="stroke: #000000; stroke-width: 0.8"/>
      </g>
     </g>
     <g id="text_8">
      <!-- 70 -->
      <g transform="translate(446.889993 376.670073) scale(0.1 -0.1)">
       <defs>
        <path id="DejaVuSans-37" d="M 525 4666 
L 3525 4666 
L 3525 4397 
L 1831 0 
L 1172 0 
L 2766 4134 
L 525 4134 
L 525 4666 
z
" transform="scale(0.015625)"/>
       </defs>
       <use xlink:href="#DejaVuSans-37"/>
       <use xlink:href="#DejaVuSans-30" transform="translate(63.623047 0)"/>
      </g>
     </g>
    </g>
    <g id="xtick_9">
     <g id="line2d_17">
      <path d="M 511.357725 362.071635 
L 511.357725 16.959615 
" clip-path="url(#pde8f2cb609)" style="fill: none; stroke: #b0b0b0; stroke-opacity: 0.18; stroke-width: 0.8; stroke-linecap: square"/>
     </g>
     <g id="line2d_18">
      <g>
       <use xlink:href="#mfcb9441d6b" x="511.357725" y="362.071635" style="stroke: #000000; stroke-width: 0.8"/>
      </g>
     </g>
     <g id="text_9">
      <!-- 80 -->
      <g transform="translate(504.995225 376.670073) scale(0.1 -0.1)">
       <defs>
        <path id="DejaVuSans-38" d="M 2034 2216 
Q 1584 2216 1326 1975 
Q 1069 1734 1069 1313 
Q 1069 891 1326 650 
Q 1584 409 2034 409 
Q 2484 409 2743 651 
Q 3003 894 3003 1313 
Q 3003 1734 2745 1975 
Q 2488 2216 2034 2216 
z
M 1403 2484 
Q 997 2584 770 2862 
Q 544 3141 544 3541 
Q 544 4100 942 4425 
Q 1341 4750 2034 4750 
Q 2731 4750 3128 4425 
Q 3525 4100 3525 3541 
Q 3525 3141 3298 2862 
Q 3072 2584 2669 2484 
Q 3125 2378 3379 2068 
Q 3634 1759 3634 1313 
Q 3634 634 3220 271 
Q 2806 -91 2034 -91 
Q 1263 -91 848 271 
Q 434 634 434 1313 
Q 434 1759 690 2068 
Q 947 2378 1403 2484 
z
M 1172 3481 
Q 1172 3119 1398 2916 
Q 1625 2713 2034 2713 
Q 2441 2713 2670 2916 
Q 2900 3119 2900 3481 
Q 2900 3844 2670 4047 
Q 2441 4250 2034 4250 
Q 1625 4250 1398 4047 
Q 1172 3844 1172 3481 
z
" transform="scale(0.015625)"/>
       </defs>
       <use xlink:href="#DejaVuSans-38"/>
       <use xlink:href="#DejaVuSans-30" transform="translate(63.623047 0)"/>
      </g>
     </g>
    </g>
    <g id="xtick_10">
     <g id="line2d_19">
      <path d="M 569.462958 362.071635 
L 569.462958 16.959615 
" clip-path="url(#pde8f2cb609)" style="fill: none; stroke: #b0b0b0; stroke-opacity: 0.18; stroke-width: 0.8; stroke-linecap: square"/>
     </g>
     <g id="line2d_20">
      <g>
       <use xlink:href="#mfcb9441d6b" x="569.462958" y="362.071635" style="stroke: #000000; stroke-width: 0.8"/>
      </g>
     </g>
     <g id="text_10">
      <!-- 90 -->
      <g transform="translate(563.100458 376.670073) scale(0.1 -0.1)">
       <defs>
        <path id="DejaVuSans-39" d="M 703 97 
L 703 672 
Q 941 559 1184 500 
Q 1428 441 1663 441 
Q 2288 441 2617 861 
Q 2947 1281 2994 2138 
Q 2813 1869 2534 1725 
Q 2256 1581 1919 1581 
Q 1219 1581 811 2004 
Q 403 2428 403 3163 
Q 403 3881 828 4315 
Q 1253 4750 1959 4750 
Q 2769 4750 3195 4129 
Q 3622 3509 3622 2328 
Q 3622 1225 3098 567 
Q 2575 -91 1691 -91 
Q 1453 -91 1209 -44 
Q 966 3 703 97 
z
M 1959 2075 
Q 2384 2075 2632 2365 
Q 2881 2656 2881 3163 
Q 2881 3666 2632 3958 
Q 2384 4250 1959 4250 
Q 1534 4250 1286 3958 
Q 1038 3666 1038 3163 
Q 1038 2656 1286 2365 
Q 1534 2075 1959 2075 
z
" transform="scale(0.015625)"/>
       </defs>
       <use xlink:href="#DejaVuSans-39"/>
       <use xlink:href="#DejaVuSans-30" transform="translate(63.623047 0)"/>
      </g>
     </g>
    </g>
    <g id="xtick_11">
     <g id="line2d_21">
      <path d="M 627.56819 362.071635 
L 627.56819 16.959615 
" clip-path="url(#pde8f2cb609)" style="fill: none; stroke: #b0b0b0; stroke-opacity: 0.18; stroke-width: 0.8; stroke-linecap: square"/>
     </g>
     <g id="line2d_22">
      <g>
       <use xlink:href="#mfcb9441d6b" x="627.56819" y="362.071635" style="stroke: #000000; stroke-width: 0.8"/>
      </g>
     </g>
     <g id="text_11">
      <!-- 100 -->
      <g transform="translate(618.02444 376.670073) scale(0.1 -0.1)">
       <use xlink:href="#DejaVuSans-31"/>
       <use xlink:href="#DejaVuSans-30" transform="translate(63.623047 0)"/>
       <use xlink:href="#DejaVuSans-30" transform="translate(127.246094 0)"/>
      </g>
     </g>
    </g>
    <g id="text_12">
     <!-- 向量化比例（%） -->
     <g transform="translate(306.153125 390.709135) scale(0.1 -0.1)">
      <defs>
       <path id="NotoSansCJKjp-Regular-5411" d="M 2803 5389 
C 2714 5062 2554 4614 2394 4269 
L 634 4269 
L 634 -512 
L 1107 -512 
L 1107 3802 
L 5325 3802 
L 5325 128 
C 5325 13 5286 -26 5158 -26 
C 5024 -32 4582 -38 4122 -13 
C 4192 -154 4262 -378 4288 -512 
C 4877 -512 5274 -506 5504 -429 
C 5728 -346 5805 -192 5805 128 
L 5805 4269 
L 2925 4269 
C 3085 4576 3258 4947 3398 5293 
L 2803 5389 
z
M 2387 2522 
L 4006 2522 
L 4006 1267 
L 2387 1267 
L 2387 2522 
z
M 1946 2950 
L 1946 371 
L 2387 371 
L 2387 832 
L 4454 832 
L 4454 2950 
L 1946 2950 
z
" transform="scale(0.015625)"/>
       <path id="NotoSansCJKjp-Regular-91cf" d="M 1600 4256 
L 4781 4256 
L 4781 3904 
L 1600 3904 
L 1600 4256 
z
M 1600 4883 
L 4781 4883 
L 4781 4538 
L 1600 4538 
L 1600 4883 
z
M 1133 5171 
L 1133 3616 
L 5261 3616 
L 5261 5171 
L 1133 5171 
z
M 333 3341 
L 333 2976 
L 6074 2976 
L 6074 3341 
L 333 3341 
z
M 1472 1747 
L 2957 1747 
L 2957 1376 
L 1472 1376 
L 1472 1747 
z
M 3424 1747 
L 4973 1747 
L 4973 1376 
L 3424 1376 
L 3424 1747 
z
M 1472 2387 
L 2957 2387 
L 2957 2029 
L 1472 2029 
L 1472 2387 
z
M 3424 2387 
L 4973 2387 
L 4973 2029 
L 3424 2029 
L 3424 2387 
z
M 301 19 
L 301 -352 
L 6112 -352 
L 6112 19 
L 3424 19 
L 3424 390 
L 5587 390 
L 5587 730 
L 3424 730 
L 3424 1082 
L 5446 1082 
L 5446 2688 
L 1018 2688 
L 1018 1082 
L 2957 1082 
L 2957 730 
L 838 730 
L 838 390 
L 2957 390 
L 2957 19 
L 301 19 
z
" transform="scale(0.015625)"/>
       <path id="NotoSansCJKjp-Regular-5316" d="M 5517 4160 
C 5050 3725 4314 3232 3597 2829 
L 3597 5222 
L 3110 5222 
L 3110 480 
C 3110 -230 3315 -416 3987 -416 
C 4134 -416 5146 -416 5306 -416 
C 5978 -416 6112 -51 6189 998 
C 6048 1024 5856 1114 5734 1203 
C 5690 269 5638 32 5280 32 
C 5069 32 4192 32 4026 32 
C 3667 32 3597 109 3597 467 
L 3597 2342 
C 4390 2758 5254 3251 5862 3750 
L 5517 4160 
z
M 2003 5280 
C 1581 4262 870 3290 134 2675 
C 224 2560 371 2310 422 2189 
C 710 2451 998 2758 1267 3104 
L 1267 -499 
L 1747 -499 
L 1747 3776 
C 2022 4205 2272 4659 2470 5120 
L 2003 5280 
z
" transform="scale(0.015625)"/>
       <path id="NotoSansCJKjp-Regular-6bd4" d="M 250 128 
L 397 -371 
C 1197 -179 2278 77 3290 326 
L 3245 787 
C 2694 659 2125 525 1600 410 
L 1600 2925 
L 3046 2925 
L 3046 3398 
L 1600 3398 
L 1600 5344 
L 1107 5344 
L 1107 301 
L 250 128 
z
M 3520 5344 
L 3520 512 
C 3520 -186 3693 -371 4320 -371 
C 4448 -371 5261 -371 5395 -371 
C 6003 -371 6138 -13 6202 1037 
C 6061 1069 5869 1152 5747 1248 
C 5709 320 5670 83 5370 83 
C 5190 83 4506 83 4371 83 
C 4064 83 4013 147 4013 499 
L 4013 2586 
C 4691 2874 5414 3219 5952 3571 
L 5594 3974 
C 5216 3674 4608 3328 4013 3046 
L 4013 5344 
L 3520 5344 
z
" transform="scale(0.015625)"/>
       <path id="NotoSansCJKjp-Regular-4f8b" d="M 4320 4653 
L 4320 954 
L 4755 954 
L 4755 4653 
L 4320 4653 
z
M 5491 5274 
L 5491 90 
C 5491 -19 5453 -45 5350 -51 
C 5242 -58 4902 -58 4512 -45 
C 4582 -179 4646 -390 4672 -518 
C 5178 -518 5491 -506 5683 -422 
C 5869 -346 5939 -211 5939 96 
L 5939 5274 
L 5491 5274 
z
M 1958 5050 
L 1958 4621 
L 2547 4621 
C 2413 3680 2131 2573 1562 1894 
C 1651 1818 1792 1658 1856 1568 
C 2016 1754 2157 1971 2285 2208 
C 2579 1997 2906 1722 3110 1510 
C 2790 762 2349 205 1818 -160 
C 1920 -237 2067 -416 2138 -525 
C 3117 179 3827 1549 4077 3635 
L 3795 3731 
L 3718 3712 
L 2822 3712 
C 2899 4019 2963 4326 3014 4621 
L 4288 4621 
L 4288 5050 
L 1958 5050 
z
M 2707 3283 
L 3584 3283 
C 3514 2797 3411 2355 3277 1958 
C 3072 2157 2752 2406 2464 2592 
C 2554 2810 2637 3046 2707 3283 
z
M 1491 5350 
C 1184 4365 672 3392 115 2752 
C 198 2630 320 2374 371 2266 
C 582 2509 781 2797 973 3110 
L 973 -512 
L 1421 -512 
L 1421 3942 
C 1619 4358 1792 4794 1933 5222 
L 1491 5350 
z
" transform="scale(0.015625)"/>
       <path id="NotoSansCJKjp-Regular-ff08" d="M 4448 2432 
C 4448 1184 4954 166 5722 -614 
L 6106 -416 
C 5370 346 4915 1293 4915 2432 
C 4915 3571 5370 4518 6106 5280 
L 5722 5478 
C 4954 4698 4448 3680 4448 2432 
z
" transform="scale(0.015625)"/>
       <path id="NotoSansCJKjp-Regular-25" d="M 1312 1818 
C 1958 1818 2381 2362 2381 3309 
C 2381 4243 1958 4774 1312 4774 
C 672 4774 250 4243 250 3309 
C 250 2362 672 1818 1312 1818 
z
M 1312 2176 
C 941 2176 691 2560 691 3309 
C 691 4058 941 4416 1312 4416 
C 1683 4416 1933 4058 1933 3309 
C 1933 2560 1683 2176 1312 2176 
z
M 1446 -83 
L 1843 -83 
L 4435 4774 
L 4038 4774 
L 1446 -83 
z
M 4582 -83 
C 5222 -83 5645 454 5645 1402 
C 5645 2342 5222 2874 4582 2874 
C 3942 2874 3520 2342 3520 1402 
C 3520 454 3942 -83 4582 -83 
z
M 4582 275 
C 4211 275 3955 653 3955 1402 
C 3955 2150 4211 2515 4582 2515 
C 4947 2515 5210 2150 5210 1402 
C 5210 653 4947 275 4582 275 
z
" transform="scale(0.015625)"/>
       <path id="NotoSansCJKjp-Regular-ff09" d="M 1952 2432 
C 1952 3680 1446 4698 678 5478 
L 294 5280 
C 1030 4518 1485 3571 1485 2432 
C 1485 1293 1030 346 294 -416 
L 678 -614 
C 1446 166 1952 1184 1952 2432 
z
" transform="scale(0.015625)"/>
      </defs>
      <use xlink:href="#NotoSansCJKjp-Regular-5411"/>
      <use xlink:href="#NotoSansCJKjp-Regular-91cf" transform="translate(99.999985 0)"/>
      <use xlink:href="#NotoSansCJKjp-Regular-5316" transform="translate(199.999969 0)"/>
      <use xlink:href="#NotoSansCJKjp-Regular-6bd4" transform="translate(299.999954 0)"/>
      <use xlink:href="#NotoSansCJKjp-Regular-4f8b" transform="translate(399.999939 0)"/>
      <use xlink:href="#NotoSansCJKjp-Regular-ff08" transform="translate(499.999924 0)"/>
      <use xlink:href="#NotoSansCJKjp-Regular-25" transform="translate(599.999908 0)"/>
      <use xlink:href="#NotoSansCJKjp-Regular-ff09" transform="translate(692.099899 0)"/>
     </g>
    </g>
   </g>
   <g id="matplotlib.axis_2">
    <g id="ytick_1">
     <g id="line2d_23">
      <path d="M 46.515865 362.071635 
L 644.99976 362.071635 
" clip-path="url(#pde8f2cb609)" style="fill: none; stroke: #b0b0b0; stroke-opacity: 0.18; stroke-width: 0.8; stroke-linecap: square"/>
     </g>
     <g id="line2d_24">
      <defs>
       <path id="madc5271d5e" d="M 0 0 
L -3.5 0 
" style="stroke: #000000; stroke-width: 0.8"/>
      </defs>
      <g>
       <use xlink:href="#madc5271d5e" x="46.515865" y="362.071635" style="stroke: #000000; stroke-width: 0.8"/>
      </g>
     </g>
     <g id="text_13">
      <!-- 0.0 -->
      <g transform="translate(23.61274 365.870854) scale(0.1 -0.1)">
       <defs>
        <path id="DejaVuSans-2e" d="M 684 794 
L 1344 794 
L 1344 0 
L 684 0 
L 684 794 
z
" transform="scale(0.015625)"/>
       </defs>
       <use xlink:href="#DejaVuSans-30"/>
       <use xlink:href="#DejaVuSans-2e" transform="translate(63.623047 0)"/>
       <use xlink:href="#DejaVuSans-30" transform="translate(95.410156 0)"/>
      </g>
     </g>
    </g>
    <g id="ytick_2">
     <g id="line2d_25">
      <path d="M 46.515865 321.94233 
L 644.99976 321.94233 
" clip-path="url(#pde8f2cb609)" style="fill: none; stroke: #b0b0b0; stroke-opacity: 0.18; stroke-width: 0.8; stroke-linecap: square"/>
     </g>
     <g id="line2d_26">
      <g>
       <use xlink:href="#madc5271d5e" x="46.515865" y="321.94233" style="stroke: #000000; stroke-width: 0.8"/>
      </g>
     </g>
     <g id="text_14">
      <!-- 2.5 -->
      <g transform="translate(23.61274 325.741549) scale(0.1 -0.1)">
       <use xlink:href="#DejaVuSans-32"/>
       <use xlink:href="#DejaVuSans-2e" transform="translate(63.623047 0)"/>
       <use xlink:href="#DejaVuSans-35" transform="translate(95.410156 0)"/>
      </g>
     </g>
    </g>
    <g id="ytick_3">
     <g id="line2d_27">
      <path d="M 46.515865 281.813026 
L 644.99976 281.813026 
" clip-path="url(#pde8f2cb609)" style="fill: none; stroke: #b0b0b0; stroke-opacity: 0.18; stroke-width: 0.8; stroke-linecap: square"/>
     </g>
     <g id="line2d_28">
      <g>
       <use xlink:href="#madc5271d5e" x="46.515865" y="281.813026" style="stroke: #000000; stroke-width: 0.8"/>
      </g>
     </g>
     <g id="text_15">
      <!-- 5.0 -->
      <g transform="translate(23.61274 285.612244) scale(0.1 -0.1)">
       <use xlink:href="#DejaVuSans-35"/>
       <use xlink:href="#DejaVuSans-2e" transform="translate(63.623047 0)"/>
       <use xlink:href="#DejaVuSans-30" transform="translate(95.410156 0)"/>
      </g>
     </g>
    </g>
    <g id="ytick_4">
     <g id="line2d_29">
      <path d="M 46.515865 241.683721 
L 644.99976 241.683721 
" clip-path="url(#pde8f2cb609)" style="fill: none; stroke: #b0b0b0; stroke-opacity: 0.18; stroke-width: 0.8; stroke-linecap: square"/>
     </g>
     <g id="line2d_30">
      <g>
       <use xlink:href="#madc5271d5e" x="46.515865" y="241.683721" style="stroke: #000000; stroke-width: 0.8"/>
      </g>
     </g>
     <g id="text_16">
      <!-- 7.5 -->
      <g transform="translate(23.61274 245.48294) scale(0.1 -0.1)">
       <use xlink:href="#DejaVuSans-37"/>
       <use xlink:href="#DejaVuSans-2e" transform="translate(63.623047 0)"/>
       <use xlink:href="#DejaVuSans-35" transform="translate(95.410156 0)"/>
      </g>
     </g>
    </g>
    <g id="ytick_5">
     <g id="line2d_31">
      <path d="M 46.515865 201.554416 
L 644.99976 201.554416 
" clip-path="url(#pde8f2cb609)" style="fill: none; stroke: #b0b0b0; stroke-opacity: 0.18; stroke-width: 0.8; stroke-linecap: square"/>
     </g>
     <g id="line2d_32">
      <g>
       <use xlink:href="#madc5271d5e" x="46.515865" y="201.554416" style="stroke: #000000; stroke-width: 0.8"/>
      </g>
     </g>
     <g id="text_17">
      <!-- 10.0 -->
      <g transform="translate(17.25024 205.353635) scale(0.1 -0.1)">
       <use xlink:href="#DejaVuSans-31"/>
       <use xlink:href="#DejaVuSans-30" transform="translate(63.623047 0)"/>
       <use xlink:href="#DejaVuSans-2e" transform="translate(127.246094 0)"/>
       <use xlink:href="#DejaVuSans-30" transform="translate(159.033203 0)"/>
      </g>
     </g>
    </g>
    <g id="ytick_6">
     <g id="line2d_33">
      <path d="M 46.515865 161.425112 
L 644.99976 161.425112 
" clip-path="url(#pde8f2cb609)" style="fill: none; stroke: #b0b0b0; stroke-opacity: 0.18; stroke-width: 0.8; stroke-linecap: square"/>
     </g>
     <g id="line2d_34">
      <g>
       <use xlink:href="#madc5271d5e" x="46.515865" y="161.425112" style="stroke: #000000; stroke-width: 0.8"/>
      </g>
     </g>
     <g id="text_18">
      <!-- 12.5 -->
      <g transform="translate(17.25024 165.22433) scale(0.1 -0.1)">
       <use xlink:href="#DejaVuSans-31"/>
       <use xlink:href="#DejaVuSans-32" transform="translate(63.623047 0)"/>
       <use xlink:href="#DejaVuSans-2e" transform="translate(127.246094 0)"/>
       <use xlink:href="#DejaVuSans-35" transform="translate(159.033203 0)"/>
      </g>
     </g>
    </g>
    <g id="ytick_7">
     <g id="line2d_35">
      <path d="M 46.515865 121.295807 
L 644.99976 121.295807 
" clip-path="url(#pde8f2cb609)" style="fill: none; stroke: #b0b0b0; stroke-opacity: 0.18; stroke-width: 0.8; stroke-linecap: square"/>
     </g>
     <g id="line2d_36">
      <g>
       <use xlink:href="#madc5271d5e" x="46.515865" y="121.295807" style="stroke: #000000; stroke-width: 0.8"/>
      </g>
     </g>
     <g id="text_19">
      <!-- 15.0 -->
      <g transform="translate(17.25024 125.095026) scale(0.1 -0.1)">
       <use xlink:href="#DejaVuSans-31"/>
       <use xlink:href="#DejaVuSans-35" transform="translate(63.623047 0)"/>
       <use xlink:href="#DejaVuSans-2e" transform="translate(127.246094 0)"/>
       <use xlink:href="#DejaVuSans-30" transform="translate(159.033203 0)"/>
      </g>
     </g>
    </g>
    <g id="ytick_8">
     <g id="line2d_37">
      <path d="M 46.515865 81.166502 
L 644.99976 81.166502 
" clip-path="url(#pde8f2cb609)" style="fill: none; stroke: #b0b0b0; stroke-opacity: 0.18; stroke-width: 0.8; stroke-linecap: square"/>
     </g>
     <g id="line2d_38">
      <g>
       <use xlink:href="#madc5271d5e" x="46.515865" y="81.166502" style="stroke: #000000; stroke-width: 0.8"/>
      </g>
     </g>
     <g id="text_20">
      <!-- 17.5 -->
      <g transform="translate(17.25024 84.965721) scale(0.1 -0.1)">
       <use xlink:href="#DejaVuSans-31"/>
       <use xlink:href="#DejaVuSans-37" transform="translate(63.623047 0)"/>
       <use xlink:href="#DejaVuSans-2e" transform="translate(127.246094 0)"/>
       <use xlink:href="#DejaVuSans-35" transform="translate(159.033203 0)"/>
      </g>
     </g>
    </g>
    <g id="ytick_9">
     <g id="line2d_39">
      <path d="M 46.515865 41.037198 
L 644.99976 41.037198 
" clip-path="url(#pde8f2cb609)" style="fill: none; stroke: #b0b0b0; stroke-opacity: 0.18; stroke-width: 0.8; stroke-linecap: square"/>
     </g>
     <g id="line2d_40">
      <g>
       <use xlink:href="#madc5271d5e" x="46.515865" y="41.037198" style="stroke: #000000; stroke-width: 0.8"/>
      </g>
     </g>
     <g id="text_21">
      <!-- 20.0 -->
      <g transform="translate(17.25024 44.836417) scale(0.1 -0.1)">
       <use xlink:href="#DejaVuSans-32"/>
       <use xlink:href="#DejaVuSans-30" transform="translate(63.623047 0)"/>
       <use xlink:href="#DejaVuSans-2e" transform="translate(127.246094 0)"/>
       <use xlink:href="#DejaVuSans-30" transform="translate(159.033203 0)"/>
      </g>
     </g>
    </g>
    <g id="text_22">
     <!-- 加速比 -->
     <g transform="translate(10.959615 204.515625) rotate(-90) scale(0.1 -0.1)">
      <defs>
       <path id="NotoSansCJKjp-Regular-52a0" d="M 3661 4582 
L 3661 -416 
L 4122 -416 
L 4122 58 
L 5363 58 
L 5363 -365 
L 5843 -365 
L 5843 4582 
L 3661 4582 
z
M 4122 518 
L 4122 4115 
L 5363 4115 
L 5363 518 
L 4122 518 
z
M 1248 5293 
L 1242 4160 
L 339 4160 
L 339 3693 
L 1229 3693 
C 1184 2080 986 659 179 -186 
C 301 -262 474 -410 550 -518 
C 1414 422 1638 1958 1696 3693 
L 2669 3693 
C 2618 1229 2560 352 2426 166 
C 2368 83 2304 58 2208 64 
C 2093 64 1818 64 1517 90 
C 1600 -45 1645 -250 1658 -390 
C 1946 -410 2240 -416 2419 -390 
C 2605 -365 2726 -307 2842 -141 
C 3040 134 3085 1069 3136 3917 
C 3136 3987 3136 4160 3136 4160 
L 1709 4160 
L 1722 5293 
L 1248 5293 
z
" transform="scale(0.015625)"/>
       <path id="NotoSansCJKjp-Regular-901f" d="M 384 4934 
C 794 4646 1274 4218 1478 3904 
L 1862 4224 
C 1632 4531 1152 4947 730 5222 
L 384 4934 
z
M 1677 2848 
L 314 2848 
L 314 2400 
L 1210 2400 
L 1210 768 
C 890 499 518 230 230 32 
L 480 -461 
C 826 -173 1152 102 1459 378 
C 1869 -128 2445 -358 3283 -390 
C 3994 -416 5318 -403 6016 -371 
C 6035 -224 6118 6 6176 115 
C 5414 64 3981 45 3283 77 
C 2541 102 1978 326 1677 794 
L 1677 2848 
z
M 2752 3379 
L 3757 3379 
L 3757 2560 
L 2752 2560 
L 2752 3379 
z
M 4224 3379 
L 5286 3379 
L 5286 2560 
L 4224 2560 
L 4224 3379 
z
M 3757 5370 
L 3757 4710 
L 2035 4710 
L 2035 4294 
L 3757 4294 
L 3757 3763 
L 2304 3763 
L 2304 2176 
L 3501 2176 
C 3130 1638 2502 1120 1920 870 
C 2022 781 2163 621 2227 506 
C 2778 787 3360 1306 3757 1875 
L 3757 314 
L 4224 314 
L 4224 1850 
C 4640 1318 5235 800 5754 525 
C 5824 640 5971 806 6080 896 
C 5510 1146 4845 1658 4442 2176 
L 5754 2176 
L 5754 3763 
L 4224 3763 
L 4224 4294 
L 6048 4294 
L 6048 4710 
L 4224 4710 
L 4224 5370 
L 3757 5370 
z
" transform="scale(0.015625)"/>
      </defs>
      <use xlink:href="#NotoSansCJKjp-Regular-52a0"/>
      <use xlink:href="#NotoSansCJKjp-Regular-901f" transform="translate(99.999985 0)"/>
      <use xlink:href="#NotoSansCJKjp-Regular-6bd4" transform="translate(199.999969 0)"/>
     </g>
    </g>
   </g>
   <g id="line2d_41">
    <path d="M 46.515865 346.019913 
L 95.32426 344.627903 
L 138.322132 343.185034 
L 176.671586 341.680728 
L 210.372621 340.146049 
L 240.587342 338.559519 
L 268.477853 336.876655 
L 294.044156 335.107547 
L 316.124144 333.366839 
L 337.042028 331.496927 
L 355.635702 329.617689 
L 373.067272 327.63327 
L 389.336737 325.548946 
L 403.281993 323.550584 
L 417.227249 321.320881 
L 430.0104 319.037528 
L 441.631446 316.727788 
L 452.090388 314.426275 
L 461.387225 312.17508 
L 470.684062 309.700601 
L 478.818795 307.324971 
L 486.953528 304.723575 
L 493.926155 302.288686 
L 500.898783 299.637867 
L 507.871411 296.741062 
L 513.681934 294.113456 
L 519.492458 291.265628 
L 525.302981 288.16868 
L 531.113504 284.788429 
L 535.761923 281.853135 
L 540.410341 278.686067 
L 545.05876 275.258645 
L 549.707179 271.537389 
L 554.355597 267.48282 
L 559.004016 263.048058 
L 562.49033 259.439142 
L 565.976644 255.557223 
L 569.462958 251.370105 
L 572.949272 246.840322 
L 576.435586 241.924016 
L 579.9219 236.569509 
L 583.408214 230.715482 
L 586.894527 224.288615 
L 590.380841 217.200499 
L 592.705051 212.055543 
L 595.02926 206.531694 
L 597.353469 200.5855 
L 599.677679 194.166595 
L 602.001888 187.216277 
L 604.326097 179.665705 
L 606.650307 171.433608 
L 608.974516 162.423353 
L 611.298725 152.51913 
L 613.622934 141.58095 
L 615.947144 129.437985 
L 618.271353 115.879582 
L 620.595562 100.64294 
L 622.919772 83.395908 
L 625.243981 63.712493 
L 627.56819 41.037198 
L 627.56819 41.037198 
" clip-path="url(#pde8f2cb609)" style="fill: none; stroke: #1f77b4; stroke-width: 2.5; stroke-linecap: square"/>
   </g>
   <g id="line2d_42">
    <path d="M 352.332878 362.071635 
L 352.332878 329.968191 
" clip-path="url(#pde8f2cb609)" style="fill: none; stroke-dasharray: 2.96,1.28; stroke-dashoffset: 0; stroke: #999999; stroke-width: 0.8"/>
   </g>
   <g id="line2d_43">
    <path d="M 46.515865 329.968191 
L 352.332878 329.968191 
" clip-path="url(#pde8f2cb609)" style="fill: none; stroke-dasharray: 2.96,1.28; stroke-dashoffset: 0; stroke: #999999; stroke-width: 0.8"/>
   </g>
   <g id="line2d_44">
    <path d="M 596.986489 362.071635 
L 596.986489 201.554416 
" clip-path="url(#pde8f2cb609)" style="fill: none; stroke-dasharray: 2.96,1.28; stroke-dashoffset: 0; stroke: #999999; stroke-width: 0.8"/>
   </g>
   <g id="line2d_45">
    <path d="M 46.515865 201.554416 
L 596.986489 201.554416 
" clip-path="url(#pde8f2cb609)" style="fill: none; stroke-dasharray: 2.96,1.28; stroke-dashoffset: 0; stroke: #999999; stroke-width: 0.8"/>
   </g>
   <g id="line2d_46">
    <path d="M 627.56819 362.071635 
L 627.56819 41.037198 
" clip-path="url(#pde8f2cb609)" style="fill: none; stroke-dasharray: 2.96,1.28; stroke-dashoffset: 0; stroke: #999999; stroke-width: 0.8"/>
   </g>
   <g id="line2d_47">
    <path d="M 46.515865 41.037198 
L 627.56819 41.037198 
" clip-path="url(#pde8f2cb609)" style="fill: none; stroke-dasharray: 2.96,1.28; stroke-dashoffset: 0; stroke: #999999; stroke-width: 0.8"/>
   </g>
   <g id="patch_3">
    <path d="M 46.515865 362.071635 
L 46.515865 16.959615 
" style="fill: none; stroke: #000000; stroke-width: 0.8; stroke-linejoin: miter; stroke-linecap: square"/>
   </g>
   <g id="patch_4">
    <path d="M 644.99976 362.071635 
L 644.99976 16.959615 
" style="fill: none; stroke: #000000; stroke-width: 0.8; stroke-linejoin: miter; stroke-linecap: square"/>
   </g>
   <g id="patch_5">
    <path d="M 46.515865 362.071635 
L 644.99976 362.071635 
" style="fill: none; stroke: #000000; stroke-width: 0.8; stroke-linejoin: miter; stroke-linecap: square"/>
   </g>
   <g id="patch_6">
    <path d="M 46.515865 16.959615 
L 644.99976 16.959615 
" style="fill: none; stroke: #000000; stroke-width: 0.8; stroke-linejoin: miter; stroke-linecap: square"/>
   </g>
   <g id="text_23">
    <!-- (52.63%, 2) -->
    <g transform="translate(287.332878 307.968191) scale(0.1 -0.1)">
     <defs>
      <path id="DejaVuSans-28" d="M 1984 4856 
Q 1566 4138 1362 3434 
Q 1159 2731 1159 2009 
Q 1159 1288 1364 580 
Q 1569 -128 1984 -844 
L 1484 -844 
Q 1016 -109 783 600 
Q 550 1309 550 2009 
Q 550 2706 781 3412 
Q 1013 4119 1484 4856 
L 1984 4856 
z
" transform="scale(0.015625)"/>
      <path id="DejaVuSans-25" d="M 4653 2053 
Q 4381 2053 4226 1822 
Q 4072 1591 4072 1178 
Q 4072 772 4226 539 
Q 4381 306 4653 306 
Q 4919 306 5073 539 
Q 5228 772 5228 1178 
Q 5228 1588 5073 1820 
Q 4919 2053 4653 2053 
z
M 4653 2450 
Q 5147 2450 5437 2106 
Q 5728 1763 5728 1178 
Q 5728 594 5436 251 
Q 5144 -91 4653 -91 
Q 4153 -91 3862 251 
Q 3572 594 3572 1178 
Q 3572 1766 3864 2108 
Q 4156 2450 4653 2450 
z
M 1428 4353 
Q 1159 4353 1004 4120 
Q 850 3888 850 3481 
Q 850 3069 1003 2837 
Q 1156 2606 1428 2606 
Q 1700 2606 1854 2837 
Q 2009 3069 2009 3481 
Q 2009 3884 1853 4118 
Q 1697 4353 1428 4353 
z
M 4250 4750 
L 4750 4750 
L 1831 -91 
L 1331 -91 
L 4250 4750 
z
M 1428 4750 
Q 1922 4750 2215 4408 
Q 2509 4066 2509 3481 
Q 2509 2891 2217 2550 
Q 1925 2209 1428 2209 
Q 931 2209 642 2551 
Q 353 2894 353 3481 
Q 353 4063 643 4406 
Q 934 4750 1428 4750 
z
" transform="scale(0.015625)"/>
      <path id="DejaVuSans-2c" d="M 750 794 
L 1409 794 
L 1409 256 
L 897 -744 
L 494 -744 
L 750 256 
L 750 794 
z
" transform="scale(0.015625)"/>
      <path id="DejaVuSans-20" transform="scale(0.015625)"/>
      <path id="DejaVuSans-29" d="M 513 4856 
L 1013 4856 
Q 1481 4119 1714 3412 
Q 1947 2706 1947 2009 
Q 1947 1309 1714 600 
Q 1481 -109 1013 -844 
L 513 -844 
Q 928 -128 1133 580 
Q 1338 1288 1338 2009 
Q 1338 2731 1133 3434 
Q 928 4138 513 4856 
z
" transform="scale(0.015625)"/>
     </defs>
     <use xlink:href="#DejaVuSans-28"/>
     <use xlink:href="#DejaVuSans-35" transform="translate(39.013672 0)"/>
     <use xlink:href="#DejaVuSans-32" transform="translate(102.636719 0)"/>
     <use xlink:href="#DejaVuSans-2e" transform="translate(166.259766 0)"/>
     <use xlink:href="#DejaVuSans-36" transform="translate(198.046875 0)"/>
     <use xlink:href="#DejaVuSans-33" transform="translate(261.669922 0)"/>
     <use xlink:href="#DejaVuSans-25" transform="translate(325.292969 0)"/>
     <use xlink:href="#DejaVuSans-2c" transform="translate(420.3125 0)"/>
     <use xlink:href="#DejaVuSans-20" transform="translate(452.099609 0)"/>
     <use xlink:href="#DejaVuSans-32" transform="translate(483.886719 0)"/>
     <use xlink:href="#DejaVuSans-29" transform="translate(547.509766 0)"/>
    </g>
   </g>
   <g id="text_24">
    <!-- (94.74%, 10) -->
    <g transform="translate(451.986489 196.554416) scale(0.1 -0.1)">
     <use xlink:href="#DejaVuSans-28"/>
     <use xlink:href="#DejaVuSans-39" transform="translate(39.013672 0)"/>
     <use xlink:href="#DejaVuSans-34" transform="translate(102.636719 0)"/>
     <use xlink:href="#DejaVuSans-2e" transform="translate(166.259766 0)"/>
     <use xlink:href="#DejaVuSans-37" transform="translate(198.046875 0)"/>
     <use xlink:href="#DejaVuSans-34" transform="translate(261.669922 0)"/>
     <use xlink:href="#DejaVuSans-25" transform="translate(325.292969 0)"/>
     <use xlink:href="#DejaVuSans-2c" transform="translate(420.3125 0)"/>
     <use xlink:href="#DejaVuSans-20" transform="translate(452.099609 0)"/>
     <use xlink:href="#DejaVuSans-31" transform="translate(483.886719 0)"/>
     <use xlink:href="#DejaVuSans-30" transform="translate(547.509766 0)"/>
     <use xlink:href="#DejaVuSans-29" transform="translate(611.132812 0)"/>
    </g>
   </g>
   <g id="text_25">
    <!-- (100%, 20) -->
    <g transform="translate(527.56819 53.037198) scale(0.1 -0.1)">
     <use xlink:href="#DejaVuSans-28"/>
     <use xlink:href="#DejaVuSans-31" transform="translate(39.013672 0)"/>
     <use xlink:href="#DejaVuSans-30" transform="translate(102.636719 0)"/>
     <use xlink:href="#DejaVuSans-30" transform="translate(166.259766 0)"/>
     <use xlink:href="#DejaVuSans-25" transform="translate(229.882812 0)"/>
     <use xlink:href="#DejaVuSans-2c" transform="translate(324.902344 0)"/>
     <use xlink:href="#DejaVuSans-20" transform="translate(356.689453 0)"/>
     <use xlink:href="#DejaVuSans-32" transform="translate(388.476562 0)"/>
     <use xlink:href="#DejaVuSans-30" transform="translate(452.099609 0)"/>
     <use xlink:href="#DejaVuSans-29" transform="translate(515.722656 0)"/>
    </g>
   </g>
   <g id="text_26">
    <!-- 向量模式速度为标量模式的 20 倍 -->
    <g transform="translate(272.967188 10.959615) scale(0.1 -0.1)">
     <defs>
      <path id="NotoSansCJKjp-Regular-6a21" d="M 3021 2669 
L 5248 2669 
L 5248 2208 
L 3021 2208 
L 3021 2669 
z
M 3021 3469 
L 5248 3469 
L 5248 3021 
L 3021 3021 
L 3021 3469 
z
M 4685 5376 
L 4685 4845 
L 3699 4845 
L 3699 5376 
L 3245 5376 
L 3245 4845 
L 2304 4845 
L 2304 4435 
L 3245 4435 
L 3245 3955 
L 3699 3955 
L 3699 4435 
L 4685 4435 
L 4685 3955 
L 5152 3955 
L 5152 4435 
L 6048 4435 
L 6048 4845 
L 5152 4845 
L 5152 5376 
L 4685 5376 
z
M 2573 3834 
L 2573 1850 
L 3878 1850 
C 3853 1658 3827 1485 3782 1318 
L 2176 1318 
L 2176 909 
L 3642 909 
C 3398 416 2938 77 1997 -128 
C 2086 -224 2208 -403 2253 -512 
C 3366 -243 3885 218 4141 896 
C 4461 192 5056 -288 5888 -512 
C 5952 -390 6080 -211 6182 -115 
C 5459 38 4909 390 4602 909 
L 6035 909 
L 6035 1318 
L 4262 1318 
C 4294 1485 4326 1664 4346 1850 
L 5715 1850 
L 5715 3834 
L 2573 3834 
z
M 1120 5376 
L 1120 4141 
L 320 4141 
L 320 3693 
L 1120 3693 
L 1120 3686 
C 947 2816 576 1798 205 1261 
C 288 1146 403 934 461 794 
C 704 1171 934 1754 1120 2381 
L 1120 -506 
L 1581 -506 
L 1581 2790 
C 1754 2451 1952 2042 2035 1830 
L 2342 2176 
C 2234 2374 1747 3174 1581 3424 
L 1581 3693 
L 2240 3693 
L 2240 4141 
L 1581 4141 
L 1581 5376 
L 1120 5376 
z
" transform="scale(0.015625)"/>
      <path id="NotoSansCJKjp-Regular-5f0f" d="M 4538 5062 
C 4870 4832 5267 4486 5459 4256 
L 5792 4557 
C 5600 4781 5190 5107 4864 5331 
L 4538 5062 
z
M 3616 5350 
C 3616 4954 3629 4563 3648 4179 
L 352 4179 
L 352 3712 
L 3680 3712 
C 3846 1331 4384 -525 5434 -525 
C 5926 -525 6106 -198 6189 922 
C 6054 973 5875 1082 5766 1190 
C 5722 333 5651 -26 5472 -26 
C 4838 -26 4339 1542 4179 3712 
L 6061 3712 
L 6061 4179 
L 4154 4179 
C 4134 4557 4128 4947 4128 5350 
L 3616 5350 
z
M 378 154 
L 531 -320 
C 1350 -141 2528 128 3616 384 
L 3578 819 
L 2208 525 
L 2208 2291 
L 3405 2291 
L 3405 2758 
L 576 2758 
L 576 2291 
L 1728 2291 
L 1728 429 
L 378 154 
z
" transform="scale(0.015625)"/>
      <path id="NotoSansCJKjp-Regular-5ea6" d="M 2470 4141 
L 2470 3584 
L 1440 3584 
L 1440 3187 
L 2470 3187 
L 2470 2125 
L 4960 2125 
L 4960 3187 
L 5997 3187 
L 5997 3584 
L 4960 3584 
L 4960 4141 
L 4486 4141 
L 4486 3584 
L 2931 3584 
L 2931 4141 
L 2470 4141 
z
M 4486 3187 
L 4486 2509 
L 2931 2509 
L 2931 3187 
L 4486 3187 
z
M 4851 1318 
C 4582 986 4211 717 3770 506 
C 3334 723 2970 992 2720 1318 
L 4851 1318 
z
M 1530 1715 
L 1530 1318 
L 2502 1318 
L 2259 1222 
C 2515 858 2861 550 3270 301 
C 2662 90 1978 -38 1280 -109 
C 1357 -211 1453 -397 1485 -512 
C 2291 -416 3072 -243 3757 45 
C 4365 -237 5088 -422 5869 -525 
C 5933 -403 6048 -211 6150 -109 
C 5466 -38 4819 96 4269 294 
C 4813 608 5261 1024 5549 1574 
L 5248 1734 
L 5165 1715 
L 1530 1715 
z
M 774 4742 
L 774 2893 
C 774 1965 730 659 198 -256 
C 314 -307 512 -435 595 -518 
C 1152 448 1235 1901 1235 2893 
L 1235 4307 
L 6035 4307 
L 6035 4742 
L 3635 4742 
L 3635 5376 
L 3142 5376 
L 3142 4742 
L 774 4742 
z
" transform="scale(0.015625)"/>
      <path id="NotoSansCJKjp-Regular-4e3a" d="M 1037 5018 
C 1293 4717 1581 4307 1709 4045 
L 2144 4256 
C 2010 4518 1709 4915 1446 5197 
L 1037 5018 
z
M 3194 2374 
C 3520 1984 3898 1446 4064 1107 
L 4486 1338 
C 4314 1670 3923 2189 3590 2566 
L 3194 2374 
z
M 2630 5363 
L 2630 4608 
C 2630 4365 2624 4109 2605 3834 
L 525 3834 
L 525 3354 
L 2554 3354 
C 2394 2214 1888 928 352 -70 
C 467 -147 646 -314 730 -422 
C 2368 666 2893 2099 3046 3354 
L 5254 3354 
C 5165 1178 5062 320 4870 122 
C 4800 45 4730 26 4589 32 
C 4435 32 4032 32 3597 70 
C 3693 -70 3757 -282 3763 -429 
C 4160 -448 4563 -461 4787 -442 
C 5024 -416 5171 -365 5318 -179 
C 5568 115 5658 1018 5760 3584 
C 5760 3661 5766 3834 5766 3834 
L 3098 3834 
C 3110 4102 3117 4365 3117 4602 
L 3117 5363 
L 2630 5363 
z
" transform="scale(0.015625)"/>
      <path id="NotoSansCJKjp-Regular-6807" d="M 2982 4890 
L 2982 4435 
L 5773 4435 
L 5773 4890 
L 2982 4890 
z
M 4986 2080 
C 5286 1440 5587 608 5683 102 
L 6125 262 
C 6016 768 5709 1581 5395 2208 
L 4986 2080 
z
M 3142 2189 
C 2976 1510 2688 826 2330 365 
C 2438 314 2630 179 2720 115 
C 3066 602 3386 1350 3584 2093 
L 3142 2189 
z
M 2701 3360 
L 2701 2906 
L 4070 2906 
L 4070 115 
C 4070 32 4045 6 3949 0 
C 3866 0 3565 -6 3232 6 
C 3296 -141 3366 -346 3386 -486 
C 3834 -486 4128 -474 4314 -397 
C 4499 -314 4557 -166 4557 109 
L 4557 2906 
L 6118 2906 
L 6118 3360 
L 2701 3360 
z
M 1293 5376 
L 1293 4019 
L 314 4019 
L 314 3571 
L 1190 3571 
C 979 2778 563 1856 154 1376 
C 243 1254 371 1056 422 928 
C 742 1338 1056 2010 1293 2701 
L 1293 -506 
L 1773 -506 
L 1773 2842 
C 1990 2528 2246 2131 2355 1926 
L 2637 2304 
C 2509 2483 1958 3187 1773 3398 
L 1773 3571 
L 2611 3571 
L 2611 4019 
L 1773 4019 
L 1773 5376 
L 1293 5376 
z
" transform="scale(0.015625)"/>
      <path id="NotoSansCJKjp-Regular-7684" d="M 3533 2707 
C 3885 2240 4320 1600 4512 1210 
L 4922 1466 
C 4710 1843 4269 2464 3904 2918 
L 3533 2707 
z
M 1536 5389 
C 1485 5082 1376 4659 1274 4346 
L 557 4346 
L 557 -346 
L 998 -346 
L 998 160 
L 2784 160 
L 2784 4346 
L 1715 4346 
C 1824 4621 1946 4979 2054 5299 
L 1536 5389 
z
M 998 3917 
L 2342 3917 
L 2342 2566 
L 998 2566 
L 998 3917 
z
M 998 595 
L 998 2144 
L 2342 2144 
L 2342 595 
L 998 595 
z
M 3827 5402 
C 3622 4518 3277 3635 2835 3066 
C 2950 3002 3149 2867 3238 2790 
C 3456 3098 3661 3488 3840 3923 
L 5478 3923 
C 5402 1357 5299 371 5094 154 
C 5018 64 4947 45 4819 45 
C 4672 45 4288 51 3866 83 
C 3955 -38 4013 -243 4026 -378 
C 4384 -397 4762 -410 4979 -390 
C 5210 -365 5350 -314 5498 -122 
C 5754 192 5843 1184 5939 4122 
C 5946 4186 5946 4365 5946 4365 
L 4013 4365 
C 4115 4666 4211 4986 4288 5299 
L 3827 5402 
z
" transform="scale(0.015625)"/>
      <path id="NotoSansCJKjp-Regular-20" transform="scale(0.015625)"/>
      <path id="NotoSansCJKjp-Regular-32" d="M 282 0 
L 3232 0 
L 3232 506 
L 1933 506 
C 1696 506 1408 480 1165 461 
C 2266 1504 3008 2458 3008 3398 
C 3008 4230 2477 4774 1638 4774 
C 1043 4774 634 4506 256 4090 
L 595 3757 
C 858 4070 1184 4301 1568 4301 
C 2150 4301 2432 3910 2432 3373 
C 2432 2566 1754 1632 282 346 
L 282 0 
z
" transform="scale(0.015625)"/>
      <path id="NotoSansCJKjp-Regular-30" d="M 1779 -83 
C 2669 -83 3238 723 3238 2362 
C 3238 3987 2669 4774 1779 4774 
C 883 4774 320 3987 320 2362 
C 320 723 883 -83 1779 -83 
z
M 1779 390 
C 1248 390 883 986 883 2362 
C 883 3731 1248 4314 1779 4314 
C 2310 4314 2675 3731 2675 2362 
C 2675 986 2310 390 1779 390 
z
" transform="scale(0.015625)"/>
      <path id="NotoSansCJKjp-Regular-500d" d="M 1875 2950 
L 1875 2502 
L 6176 2502 
L 6176 2950 
L 1875 2950 
z
M 2675 4051 
C 2829 3706 2970 3264 3002 2989 
L 3450 3117 
C 3411 3386 3258 3821 3091 4154 
L 2675 4051 
z
M 4979 4160 
C 4890 3840 4730 3366 4589 3078 
L 5011 2982 
C 5152 3258 5318 3674 5459 4058 
L 4979 4160 
z
M 2144 4653 
L 2144 4211 
L 6042 4211 
L 6042 4653 
L 4307 4653 
L 4307 5376 
L 3821 5376 
L 3821 4653 
L 2144 4653 
z
M 2477 1901 
L 2477 -518 
L 2950 -518 
L 2950 -218 
L 5216 -218 
L 5216 -480 
L 5702 -480 
L 5702 1901 
L 2477 1901 
z
M 2950 230 
L 2950 1459 
L 5216 1459 
L 5216 230 
L 2950 230 
z
M 1690 5350 
C 1331 4378 736 3418 102 2797 
C 192 2688 326 2438 371 2323 
C 595 2554 813 2822 1024 3117 
L 1024 -499 
L 1485 -499 
L 1485 3840 
C 1734 4282 1965 4749 2144 5216 
L 1690 5350 
z
" transform="scale(0.015625)"/>
     </defs>
     <use xlink:href="#NotoSansCJKjp-Regular-5411"/>
     <use xlink:href="#NotoSansCJKjp-Regular-91cf" transform="translate(99.999985 0)"/>
     <use xlink:href="#NotoSansCJKjp-Regular-6a21" transform="translate(199.999969 0)"/>
     <use xlink:href="#NotoSansCJKjp-Regular-5f0f" transform="translate(299.999954 0)"/>
     <use xlink:href="#NotoSansCJKjp-Regular-901f" transform="translate(399.999939 0)"/>
     <use xlink:href="#NotoSansCJKjp-Regular-5ea6" transform="translate(499.999924 0)"/>
     <use xlink:href="#NotoSansCJKjp-Regular-4e3a" transform="translate(599.999908 0)"/>
     <use xlink:href="#NotoSansCJKjp-Regular-6807" transform="translate(699.999893 0)"/>
     <use xlink:href="#NotoSansCJKjp-Regular-91cf" transform="translate(799.999878 0)"/>
     <use xlink:href="#NotoSansCJKjp-Regular-6a21" transform="translate(899.999863 0)"/>
     <use xlink:href="#NotoSansCJKjp-Regular-5f0f" transform="translate(999.999847 0)"/>
     <use xlink:href="#NotoSansCJKjp-Regular-7684" transform="translate(1099.999832 0)"/>
     <use xlink:href="#NotoSansCJKjp-Regular-20" transform="translate(1199.999817 0)"/>
     <use xlink:href="#NotoSansCJKjp-Regular-32" transform="translate(1222.399811 0)"/>
     <use xlink:href="#NotoSansCJKjp-Regular-30" transform="translate(1277.899796 0)"/>
     <use xlink:href="#NotoSansCJKjp-Regular-20" transform="translate(1333.39978 0)"/>
     <use xlink:href="#NotoSansCJKjp-Regular-500d" transform="translate(1355.799774 0)"/>
    </g>
   </g>
   <g id="PathCollection_2">
    <defs>
     <path id="m590cd906aa" d="M 0 3 
C 0.795609 3 1.55874 2.683901 2.12132 2.12132 
C 2.683901 1.55874 3 0.795609 3 0 
C 3 -0.795609 2.683901 -1.55874 2.12132 -2.12132 
C 1.55874 -2.683901 0.795609 -3 0 -3 
C -0.795609 -3 -1.55874 -2.683901 -2.12132 -2.12132 
C -2.683901 -1.55874 -3 -0.795609 -3 0 
C -3 0.795609 -2.683901 1.55874 -2.12132 2.12132 
C -1.55874 2.683901 -0.795609 3 0 3 
z
" style="stroke: #d97706"/>
    </defs>
    <g clip-path="url(#pde8f2cb609)">
     <use xlink:href="#m590cd906aa" x="352.332878" y="329.968191" style="fill: #d97706; stroke: #d97706"/>
    </g>
   </g>
   <g id="PathCollection_3">
    <g clip-path="url(#pde8f2cb609)">
     <use xlink:href="#m590cd906aa" x="596.986489" y="201.554416" style="fill: #d97706; stroke: #d97706"/>
    </g>
   </g>
   <g id="PathCollection_4">
    <g clip-path="url(#pde8f2cb609)">
     <use xlink:href="#m590cd906aa" x="627.56819" y="41.037198" style="fill: #d97706; stroke: #d97706"/>
    </g>
   </g>
   <g id="legend_1">
    <g id="patch_7">
     <path d="M 53.515865 39.63774 
L 177.915865 39.63774 
Q 179.915865 39.63774 179.915865 37.63774 
L 179.915865 23.959615 
Q 179.915865 21.959615 177.915865 21.959615 
L 53.515865 21.959615 
Q 51.515865 21.959615 51.515865 23.959615 
L 51.515865 37.63774 
Q 51.515865 39.63774 53.515865 39.63774 
z
" style="fill: #ffffff; opacity: 0.8; stroke: #cccccc; stroke-linejoin: miter"/>
    </g>
    <g id="line2d_48">
     <path d="M 55.515865 30.058053 
L 65.515865 30.058053 
L 75.515865 30.058053 
" style="fill: none; stroke: #1f77b4; stroke-width: 2.5; stroke-linecap: square"/>
    </g>
    <g id="text_27">
     <!-- $A(f)=1/(1-0.95f)$ -->
     <g transform="translate(83.515865 33.558053) scale(0.1 -0.1)">
      <defs>
       <path id="DejaVuSans-Oblique-41" d="M 2356 4666 
L 3072 4666 
L 3938 0 
L 3278 0 
L 3084 1197 
L 984 1197 
L 325 0 
L -341 0 
L 2356 4666 
z
M 2584 4044 
L 1275 1722 
L 2988 1722 
L 2584 4044 
z
" transform="scale(0.015625)"/>
       <path id="DejaVuSans-Oblique-66" d="M 3059 4863 
L 2969 4384 
L 2419 4384 
Q 2106 4384 1964 4261 
Q 1822 4138 1753 3809 
L 1691 3500 
L 2638 3500 
L 2553 3053 
L 1606 3053 
L 1013 0 
L 434 0 
L 1031 3053 
L 481 3053 
L 563 3500 
L 1113 3500 
L 1159 3744 
Q 1278 4363 1576 4613 
Q 1875 4863 2516 4863 
L 3059 4863 
z
" transform="scale(0.015625)"/>
       <path id="DejaVuSans-3d" d="M 678 2906 
L 4684 2906 
L 4684 2381 
L 678 2381 
L 678 2906 
z
M 678 1631 
L 4684 1631 
L 4684 1100 
L 678 1100 
L 678 1631 
z
" transform="scale(0.015625)"/>
       <path id="DejaVuSans-2f" d="M 1625 4666 
L 2156 4666 
L 531 -594 
L 0 -594 
L 1625 4666 
z
" transform="scale(0.015625)"/>
       <path id="DejaVuSans-2212" d="M 678 2272 
L 4684 2272 
L 4684 1741 
L 678 1741 
L 678 2272 
z
" transform="scale(0.015625)"/>
      </defs>
      <use xlink:href="#DejaVuSans-Oblique-41" transform="translate(0 0.015625)"/>
      <use xlink:href="#DejaVuSans-28" transform="translate(68.408203 0.015625)"/>
      <use xlink:href="#DejaVuSans-Oblique-66" transform="translate(107.421875 0.015625)"/>
      <use xlink:href="#DejaVuSans-29" transform="translate(142.626953 0.015625)"/>
      <use xlink:href="#DejaVuSans-3d" transform="translate(201.123047 0.015625)"/>
      <use xlink:href="#DejaVuSans-31" transform="translate(304.394531 0.015625)"/>
      <use xlink:href="#DejaVuSans-2f" transform="translate(368.017578 0.015625)"/>
      <use xlink:href="#DejaVuSans-28" transform="translate(401.708984 0.015625)"/>
      <use xlink:href="#DejaVuSans-31" transform="translate(440.722656 0.015625)"/>
      <use xlink:href="#DejaVuSans-2212" transform="translate(523.828125 0.015625)"/>
      <use xlink:href="#DejaVuSans-30" transform="translate(627.099609 0.015625)"/>
      <use xlink:href="#DejaVuSans-2e" transform="translate(690.722656 0.015625)"/>
      <use xlink:href="#DejaVuSans-39" transform="translate(722.509766 0.015625)"/>
      <use xlink:href="#DejaVuSans-35" transform="translate(786.132812 0.015625)"/>
      <use xlink:href="#DejaVuSans-Oblique-66" transform="translate(849.755859 0.015625)"/>
      <use xlink:href="#DejaVuSans-29" transform="translate(884.960938 0.015625)"/>
     </g>
    </g>
   </g>
  </g>
 </g>
 <defs>
  <clipPath id="pde8f2cb609">
   <rect x="46.515865" y="16.959615" width="598.483895" height="345.11202"/>
  </clipPath>
 </defs>
</svg>
